HIERARCHY
ROOT Hips
{
	OFFSET 0.000000 0.000000 0.000000
	CHANNELS 6 Xposition Yposition Zposition Zrotation Yrotation Xrotation 
	JOINT LHipJoint
	{
		OFFSET 0.000000 0.000000 0.000000
		CHANNELS 3 Zrotation Yrotation Xrotation
		JOINT LeftUpLeg
		{
			OFFSET 1.363060 -1.794630 0.839290
			CHANNELS 3 Zrotation Yrotation Xrotation
			JOINT LeftLeg
			{
				OFFSET 2.448110 -6.726130 0.000000
				CHANNELS 3 Zrotation Yrotation Xrotation
				JOINT LeftFoot
				{
					OFFSET 2.562200 -7.039590 0.000000
					CHANNELS 3 Zrotation Yrotation Xrotation
					JOINT LeftToeBase
					{
						OFFSET 0.157640 -0.433110 2.322550
						CHANNELS 3 Zrotation Yrotation Xrotation
						End Site
						{
							OFFSET 0.000000 0.000000 0.000000
						}
					}
				}
			}
		}
	}
	JOINT RHipJoint
	{
		OFFSET 0.000000 0.000000 0.000000
		CHANNELS 3 Zrotation Yrotation Xrotation
		JOINT RightUpLeg
		{
			OFFSET -1.305520 -1.794630 0.839290
			CHANNELS 3 Zrotation Yrotation Xrotation
			JOINT RightLeg
			{
				OFFSET -2.542530 -6.985550 0.000000
				CHANNELS 3 Zrotation Yrotation Xrotation
				JOINT RightFoot
				{
					OFFSET -2.568260 -7.056230 0.000000
					CHANNELS 3 Zrotation Yrotation Xrotation
					JOINT RightToeBase
					{
						OFFSET -0.164730 -0.452590 2.363150
						CHANNELS 3 Zrotation Yrotation Xrotation
						End Site
						{
							OFFSET 0.000000 0.000000 0.000000
						}
					}
				}
			}
		}
	}
	JOINT LowerBack
	{
		OFFSET 0.000000 0.000000 0.000000
		CHANNELS 3 Zrotation Yrotation Xrotation
		JOINT Spine
		{
			OFFSET 0.028270 2.035590 -0.193380
			CHANNELS 3 Zrotation Yrotation Xrotation
			JOINT Spine1
			{
				OFFSET 0.056720 2.048850 -0.042750
				CHANNELS 3 Zrotation Yrotation Xrotation
				JOINT Neck
				{
					OFFSET 0.000000 0.000000 0.000000
					CHANNELS 3 Zrotation Yrotation Xrotation
					JOINT Neck1
					{
						OFFSET -0.054170 1.746240 0.172020
						CHANNELS 3 Zrotation Yrotation Xrotation
						JOINT Head
						{
							OFFSET 0.104070 1.761360 -0.123970
							CHANNELS 3 Zrotation Yrotation Xrotation
							End Site
							{
								OFFSET 0.000000 0.000000 0.000000
							}
						}
					}
				}
				JOINT LeftShoulder
				{
					OFFSET 0.000000 0.000000 0.000000
					CHANNELS 3 Zrotation Yrotation Xrotation
					JOINT LeftArm
					{
						OFFSET 3.362410 1.200890 -0.311210
						CHANNELS 3 Zrotation Yrotation Xrotation
						JOINT LeftForeArm
						{
							OFFSET 4.983000 -0.000000 -0.000000
							CHANNELS 3 Zrotation Yrotation Xrotation
							JOINT LeftHand
							{
								OFFSET 3.483560 -0.000000 -0.000000
								CHANNELS 3 Zrotation Yrotation Xrotation
								JOINT LeftFingerBase
								{
									OFFSET 0.000000 0.000000 0.000000
									CHANNELS 3 Zrotation Yrotation Xrotation
									JOINT LeftHandIndex1
									{
										OFFSET 0.715260 -0.000000 -0.000000
										CHANNELS 3 Zrotation Yrotation Xrotation
										End Site
										{
											OFFSET 0.000000 0.000000 0.000000
										}
									}
								}
								JOINT LThumb
								{
									OFFSET 0.000000 0.000000 0.000000
									CHANNELS 3 Zrotation Yrotation Xrotation
									End Site
									{
										OFFSET 0.000000 0.000000 0.000000
									}
								}
							}
						}
					}
				}
				JOINT RightShoulder
				{
					OFFSET 0.000000 0.000000 0.000000
					CHANNELS 3 Zrotation Yrotation Xrotation
					JOINT RightArm
					{
						OFFSET -3.136600 1.374050 -0.404650
						CHANNELS 3 Zrotation Yrotation Xrotation
						JOINT RightForeArm
						{
							OFFSET -5.241900 -0.000000 -0.000000
							CHANNELS 3 Zrotation Yrotation Xrotation
							JOINT RightHand
							{
								OFFSET -3.444170 -0.000000 -0.000000
								CHANNELS 3 Zrotation Yrotation Xrotation
								JOINT RightFingerBase
								{
									OFFSET 0.000000 0.000000 0.000000
									CHANNELS 3 Zrotation Yrotation Xrotation
									JOINT RightHandIndex1
									{
										OFFSET -0.622530 -0.000000 -0.000000
										CHANNELS 3 Zrotation Yrotation Xrotation
										End Site
										{
											OFFSET 0.000000 0.000000 0.000000
										}
									}
								}
								JOINT RThumb
								{
									OFFSET 0.000000 0.000000 0.000000
									CHANNELS 3 Zrotation Yrotation Xrotation
									End Site
									{
										OFFSET 0.000000 0.000000 0.000000
									}
								}
							}
						}
					}
				}
			}
		}
	}
}
MOTION
Frames: 8
Frame Time: 0.008333
-1.516596 16.964454 -0.347396 20.659074 79.634113 32.570496 -9.569442 0.725030 5.361966 -8.689062 -8.337173 -33.749174 -2.887070 -0.215760 10.931909 -0.944929 -7.664803 6.756463 -1.361200 0.000001 -37.548600 9.797554 -3.689879 1.283073 7.213352 -0.970821 -0.338522 2.294000 -1.537458 24.844661 1.251488 13.194645 -5.034758 0.310800 0.000000 -37.991500 -1.608527 2.148039 -7.983858 -1.403610 1.894835 -4.108809 -6.970743 1.818625 2.066002 10.994104 -6.326733 -9.438538 -3.743532 -0.284458 -0.477761 0.000000 0.000000 0.000000 -4.461564 25.796951 1.034397 -61.963423 13.680852 -22.282810 -3.570664 -26.541116 0.008814 10.888448 1.551518 0.155949 -0.130520 -0.060736 -0.000000 0.000000 0.000000 0.000000 0.000000 0.000000 0.000000 18.428629 2.090041 -0.618772 67.699539 17.063980 8.355003 2.386789 43.761796 0.007700 -1.155004 8.084102 -0.087523 0.068098 -0.240608 0.000000 0.000000 0.000000 0.000000 0.000000 0.000000 0.000000 
-1.371808 16.977260 -0.319597 21.998659 79.194686 33.664100 -9.553989 0.838425 5.215982 -9.496267 -7.629051 -33.244199 -2.958121 -0.173877 11.482484 -0.958329 -7.885806 6.526470 -1.379900 -0.000000 -36.764900 9.996799 -3.780191 1.266959 6.495224 -1.358791 -1.091718 2.027162 -1.782394 27.033484 1.235448 13.190035 -3.441865 0.619199 -0.000000 -42.474400 -1.948290 2.012716 -7.917023 -1.461898 1.800956 -4.099532 -6.970641 1.722449 2.055865 11.072670 -6.439142 -9.411746 -3.761035 -0.285953 -0.471291 0.000000 0.000000 0.000000 -4.388814 25.493014 1.014087 -62.039262 13.140082 -21.935064 -3.566651 -26.533442 0.008287 10.972767 1.617454 0.163247 -0.129103 -0.058113 -0.000000 0.000000 0.000000 0.000000 0.000000 0.000000 0.000000 18.632723 1.850467 -0.625295 68.406317 16.465329 8.120679 2.439319 42.680865 0.007946 -1.144493 8.056151 -0.086452 0.069224 -0.233759 0.000000 0.000000 0.000000 0.000000 0.000000 0.000000 0.000000 
-1.230613 16.989985 -0.291808 23.097156 78.738554 34.542297 -9.533978 0.944971 5.088620 -10.201985 -7.025751 -32.706771 -3.025660 -0.143716 11.954389 -0.970356 -8.102395 6.185467 -1.382000 0.000000 -35.875900 10.195539 -3.854164 1.245038 5.810570 -1.747089 -1.982303 1.737966 -2.021326 29.352412 1.200841 13.160365 -1.667093 0.978300 -0.000000 -46.922300 -2.264917 1.879170 -7.850782 -1.515016 1.706508 -4.089559 -6.965282 1.625870 2.047078 11.136896 -6.555420 -9.389726 -3.776626 -0.287218 -0.466153 0.000000 0.000000 0.000000 -4.322395 25.166673 0.995638 -62.143703 12.544933 -21.561355 -3.559755 -26.551417 0.007720 11.046288 1.673459 0.169545 -0.127587 -0.055218 -0.000000 0.000000 0.000000 0.000000 0.000000 0.000000 0.000000 18.812299 1.600161 -0.626283 69.103170 15.877810 7.813933 2.491182 41.561184 0.008155 -1.128140 8.004793 -0.084785 0.070186 -0.226716 0.000000 0.000000 0.000000 0.000000 0.000000 0.000000 0.000000 
-1.093158 17.002336 -0.263876 23.981540 78.261537 35.235353 -9.509161 1.044735 4.980505 -10.819615 -6.524812 -32.141542 -3.090250 -0.125357 12.337102 -0.980031 -8.297414 5.767997 -1.367200 -0.000000 -34.914400 10.394377 -3.907521 1.219298 5.158271 -2.131986 -3.006558 1.430304 -2.248170 31.783983 1.143854 13.096275 0.255226 1.380900 -0.000000 -51.057300 -2.563070 1.747045 -7.788233 -1.564034 1.611335 -4.079505 -6.956032 1.528629 2.039990 11.191934 -6.674739 -9.373554 -3.791074 -0.288311 -0.462660 0.000000 0.000000 0.000000 -4.258215 24.821761 0.979087 -62.272271 11.898071 -21.156736 -3.550198 -26.599956 0.007127 11.107069 1.714700 0.174144 -0.126012 -0.052083 -0.000000 0.000000 0.000000 0.000000 0.000000 0.000000 0.000000 18.976454 1.341395 -0.620968 69.780069 15.304601 7.441856 2.541599 40.417251 0.008318 -1.108247 7.929646 -0.082622 0.070983 -0.219562 -0.000000 0.000000 0.000000 0.000000 0.000000 0.000000 0.000000 
-0.959457 17.014138 -0.235895 24.639794 77.761830 35.733807 -9.481990 1.138373 4.888761 -11.362311 -6.098815 -31.564830 -3.152041 -0.117397 12.635312 -0.987201 -8.466078 5.304048 -1.338400 0.000000 -33.921100 10.589911 -3.937196 1.193989 4.550035 -2.499707 -4.154306 1.111820 -2.457137 34.309029 1.061880 12.973842 2.255932 1.807400 -0.000000 -54.367600 -2.838109 1.617218 -7.732255 -1.608185 1.515588 -4.070173 -6.944445 1.430799 2.033885 11.240728 -6.797965 -9.363347 -3.805157 -0.289311 -0.460785 0.000000 0.000000 0.000000 -4.197906 24.456928 0.963836 -62.417882 11.213076 -20.712881 -3.537769 -26.691949 0.006526 11.154287 1.740780 0.177144 -0.124403 -0.048805 -0.000000 0.000000 0.000000 0.000000 0.000000 0.000000 0.000000 19.131751 1.074759 -0.608361 70.426628 14.747370 7.017710 2.590122 39.261774 0.008423 -1.089267 7.832737 -0.080260 0.071662 -0.212368 -0.000000 0.000000 0.000000 0.000000 0.000000 0.000000 0.000000 
-0.829541 17.025204 -0.207244 25.183399 77.232857 36.141185 -9.445465 1.227531 4.812223 -11.864876 -5.753709 -30.957955 -3.213095 -0.121345 12.823287 -0.989061 -8.564051 4.833710 -1.292501 0.000000 -32.941100 10.789694 -3.939545 1.165161 3.955121 -2.869945 -5.405696 0.788066 -2.645649 36.892234 0.953442 12.771024 4.305376 2.241600 0.000000 -57.046900 -3.116399 1.484509 -7.678599 -1.652719 1.416762 -4.060110 -6.932148 1.329844 2.031537 11.293029 -6.920212 -9.360690 -3.819926 -0.290255 -0.461248 0.000000 0.000000 0.000000 -4.123688 24.091142 0.950793 -62.575700 10.467504 -20.229488 -3.524002 -26.804685 0.005923 11.190659 1.739712 0.177245 -0.122840 -0.045268 -0.000000 0.000000 0.000000 0.000000 0.000000 0.000000 0.000000 19.294604 0.805075 -0.590583 71.035629 14.203264 6.547876 2.634803 38.113799 0.008455 -1.072080 7.714298 -0.077901 0.072141 -0.205206 -0.000000 0.000000 0.000000 0.000000 0.000000 0.000000 0.000000 
-0.703147 17.035592 -0.178345 25.548636 76.676840 36.393060 -9.406481 1.313348 4.743780 -12.330965 -5.434393 -30.345474 -3.272186 -0.133978 12.925261 -0.986371 -8.604056 4.372207 -1.236100 0.000000 -32.029000 10.983892 -3.915080 1.138267 3.403453 -3.220243 -6.736510 0.468698 -2.810955 39.497969 0.818209 12.426663 6.329495 2.644500 0.000001 -58.959100 -3.378060 1.351669 -7.627866 -1.693789 1.315459 -4.050146 -6.920362 1.226362 2.029888 11.346896 -7.045171 -9.363263 -3.835827 -0.291234 -0.463220 0.000000 0.000000 0.000000 -4.049347 23.711265 0.938555 -62.734717 9.696369 -19.694234 -3.507846 -26.966868 0.005333 11.216689 1.722203 0.175549 -0.121320 -0.041667 -0.000000 0.000000 0.000000 0.000000 0.000000 0.000000 0.000000 19.464295 0.529607 -0.566211 71.597310 13.673297 6.053491 2.676031 36.980130 0.008422 -1.063366 7.581280 -0.075941 0.072541 -0.198121 -0.000000 0.000000 0.000000 0.000000 0.000000 0.000000 0.000000 
-0.580056 17.045439 -0.149262 25.752382 76.093588 36.498164 -9.366515 1.397204 4.678044 -12.773379 -5.111643 -29.727741 -3.329075 -0.153958 12.946424 -0.978368 -8.577144 3.937224 -1.171400 0.000000 -31.237799 11.169533 -3.864501 1.112753 2.897836 -3.550472 -8.118828 0.161489 -2.953516 42.089834 0.657838 11.887188 8.261082 2.971800 -0.000000 -60.219499 -3.621774 1.217651 -7.575625 -1.731138 1.210572 -4.039629 -6.910150 1.119294 2.027969 11.403722 -7.171429 -9.369293 -3.853432 -0.292308 -0.466241 0.000000 0.000000 0.000000 -3.976221 23.316986 0.926958 -62.885540 8.910589 -19.102599 -3.489448 -27.182088 0.004761 11.233949 1.690809 0.172254 -0.119873 -0.038050 -0.000000 0.000000 0.000000 0.000000 0.000000 0.000000 0.000000 19.644576 0.249693 -0.535940 72.104930 13.154231 5.548334 2.713358 35.870322 0.008324 -1.066005 7.438750 -0.074683 0.072883 -0.191150 -0.000000 0.000000 0.000000 0.000000 0.000000 0.000000 0.000000 
